<?xml version="1.0" standalone="no"?>
<!DOCTYPE svg PUBLIC "-//W3C//DTD SVG 20010904//EN"
 "http://www.w3.org/TR/2001/REC-SVG-20010904/DTD/svg10.dtd">
<svg version="1.0" xmlns="http://www.w3.org/2000/svg"
 width="1280.000000pt" height="1255.000000pt" viewBox="0 0 1280.000000 1255.000000"
 preserveAspectRatio="xMidYMid meet">
<metadata>
Created by potrace 1.15, written by Peter Selinger 2001-2017
</metadata>
<g transform="translate(0.000000,1255.000000) scale(0.100000,-0.100000)"
fill="#2C7BE5" stroke="none">
<path d="M6745 12533 c-193 -69 -390 -290 -620 -693 -143 -253 -308 -602 -623
-1320 -233 -532 -292 -660 -413 -905 -241 -489 -432 -752 -610 -839 -132 -64
-248 -84 -534 -93 -299 -8 -603 15 -1465 112 -907 102 -1112 119 -1500 119
-333 1 -460 -11 -626 -59 -346 -101 -436 -313 -273 -640 100 -202 251 -388
584 -720 260 -261 388 -380 840 -780 798 -707 1085 -992 1262 -1255 119 -176
148 -265 141 -434 -14 -313 -146 -687 -610 -1716 -481 -1067 -625 -1443 -699
-1835 -20 -106 -18 -346 3 -416 81 -261 344 -319 783 -174 360 119 712 299
1670 855 899 521 1267 702 1575 771 180 40 305 22 492 -71 277 -138 587 -386
1358 -1085 887 -804 1224 -1073 1558 -1240 165 -82 257 -109 377 -109 86 0
107 3 150 24 252 123 305 529 174 1330 -34 208 -112 589 -228 1110 -227 1022
-275 1309 -275 1650 0 225 10 294 60 393 123 243 499 520 1394 1027 891 505
1117 639 1380 817 218 148 347 251 476 378 182 182 263 331 251 465 -10 109
-66 200 -172 275 -286 205 -789 316 -1985 440 -1077 111 -1383 153 -1690 230
-318 80 -471 159 -572 293 -183 245 -309 655 -543 1767 -186 879 -272 1233
-381 1561 -138 416 -299 672 -471 751 -74 34 -169 40 -238 16z"/>
</g>
</svg>
